<?xml version="1.0" encoding="utf-8"?>
<!-- Generator: Adobe Illustrator 19.1.0, SVG Export Plug-In . SVG Version: 6.00 Build 0)  -->
<!DOCTYPE svg PUBLIC "-//W3C//DTD SVG 1.1//EN" "http://www.w3.org/Graphics/SVG/1.1/DTD/svg11.dtd">
<svg version="1.1" id="Layer_1" xmlns="http://www.w3.org/2000/svg" xmlns:xlink="http://www.w3.org/1999/xlink" x="0px" y="0px"
	 viewBox="17 -17.9 107 107" style="enable-background:new 17 -17.9 107 107;" xml:space="preserve">
<style type="text/css">
	.st0{fill:none;stroke:#04BBDE;stroke-width:2.5193;stroke-linecap:round;stroke-linejoin:round;stroke-miterlimit:10;}
</style>
<g>
	<g>
		<line class="st0" x1="94.3" y1="48.4" x2="102.7" y2="51.2"/>
		<path class="st0" d="M75.4,30.7c-0.8,2.5-2.7,7.3-4.2,9.6"/>
		<path class="st0" d="M75.4,30.7c-0.1-0.6-6.3-4.9-6.7-5.5s-1.7-1.8-3.4-2.4c-1.7-0.6-6-2.6-7.9-2.5s-7.5-0.6-8.9-0.4
			C47.7,20,43.9,21,40.8,21c-2.7,0-3.7-0.5-4.4-0.8c-1.4-0.9-2.2-2.3-1.2-3.5c1-1.3,3.7-1.3,5.4-1.7c2.2-0.5,6.7-1.7,8.2-2
			c6-1.4,6.8-1.2,11.2-0.6c5.8,0.8,10.4,1.6,14.5,2s5.6,3.6,11.1,6.3c8.1,4,14.1,7,21.9,8"/>
		<g>
			<path class="st0" d="M54.9,20.2c-2.6-0.1-3.2,4.5-3.4,6c-0.2,1.3-1,3-2.6,6.9c-1.8,4.3-3,6.4-3.1,7.8c-0.1,1.8,1.3,2.8,2.2,2.8
				s2.5-0.5,3.6-1.8c1.3-1.6,1.9-2.6,3.4-6.4c1.4-3.8,4.5-7.8,4.5-7.8c1.3,0,6-1.3,8.8-2.1"/>
		</g>
		<path class="st0" d="M75.7,38.7c-1.7,1.5-9.8,3.2-14.9,3.2c-3,0-7.4,0.7-10.4,2c-2.1,0.9-3.3,2.5-3.7,3.3c-0.7,1.5,0,2.9,1.3,3.4
			c1.3,0.5,1.9-0.6,4.8-0.8c3-0.1,5.1,0.3,7.2,0.1c3-0.3,10.7-1.8,14.6-0.9s8.3,2.5,12.4,1.7c2.7-0.5,9.3-2.6,9.6-5.9"/>
		<path class="st0" d="M55.6,49.6"/>
		<path class="st0" d="M39.5,27.7c0,0,0.2,3.1,5,2.9c1.2,0,3.5-0.4,5.7-0.8"/>
		<line class="st0" x1="33.8" y1="42.4" x2="39.5" y2="43.3"/>
		<path class="st0" d="M51.4,25.5c-1.6,0.3-8.3,1.3-12.4,1.2c-4.7-0.1-5.4-2.2-5.5-3.1c-0.1-1,1-1.8,1.5-2c0.4-0.1,3.8-0.1,5.7-0.5"
			/>
		<line class="st0" x1="34" y1="52" x2="40" y2="49.7"/>
		<line class="st0" x1="41.2" y1="59.3" x2="44.7" y2="54.2"/>
	</g>
</g>
</svg>
