<?xml version="1.0" encoding="utf-8"?>
<!-- Generator: Adobe Illustrator 19.1.0, SVG Export Plug-In . SVG Version: 6.00 Build 0)  -->
<!DOCTYPE svg PUBLIC "-//W3C//DTD SVG 1.1//EN" "http://www.w3.org/Graphics/SVG/1.1/DTD/svg11.dtd">
<svg version="1.1" id="Layer_1" xmlns="http://www.w3.org/2000/svg" xmlns:xlink="http://www.w3.org/1999/xlink" x="0px" y="0px"
	 viewBox="17 -17 107 107" style="enable-background:new 17 -17 107 107;" xml:space="preserve">
<style type="text/css">
	.st0{fill:none;stroke:#00BBDE;stroke-width:2.5193;stroke-linecap:round;stroke-linejoin:round;stroke-miterlimit:10;}
</style>
<g>
	<g>
		<polyline class="st0" points="-121.6,2 -135,1.8 -135.3,-11.6 		"/>
		<path class="st0" d="M-148,31.2c-0.2,1.8-0.3,3.6-0.3,5.4c0,28.8,23.4,52.2,52.2,52.2s52.2-23.4,52.2-52.2s-23.3-52.3-52.2-52.3
			c-14.8,0-28.1,6.1-37.6,16"/>
	</g>
</g>
<g>
	<polyline class="st0" points="68.6,5.1 60.5,-0.8 66.1,-9.1 	"/>
	<path class="st0" d="M102.8,14.3C95.7,4,83.9-2.8,70.5-2.8c-3.2,0-6.4,0.4-9.3,1.1"/>
	<path class="st0" d="M103.5,15.5c-0.2-0.4-0.5-0.8-0.7-1.1"/>
</g>
<g>
	<g>
		<path class="st0" d="M43.6,27.4c0,0-2.9,2.1-2.8,5.1s2.1,4.6,2.7,5c0,0-1.8,1.8-1.2,5.1c0.6,3.3,2.8,4.2,3.7,4.4
			c0,0-1.1,2.7-0.2,5.1s2.6,3.1,3.8,3.6c1.2,0.5,4.4,1.5,5.1,2.2c0.7,0.8,3,1.2,6.2,1.3c2.3,0,9,0.5,14.1-0.4s6.2-1.7,7.3-4.3"/>
		<path class="st0" d="M83.7,45.3c0.8-4.1,3.5-10.8,1.5-15c-2-4.1-6.1-9.5-9.1-12.8s-4.4-3.3-8.2-4.6s-11.3-3.3-13-3.5
			c-1.8-0.3-2.8-0.2-3.6,1.1c-0.8,1.3-2.8,4.6-2.8,4.6s-6,3.2-6.7,3.8c-0.7,0.6-1.1,4.4-0.6,5.9c0.8,2.3,4.8,3,4.8,3"/>
		<path class="st0" d="M60.4,45.2c0,0,2.7,0.8,2.9,3c0.2,2.2-1.1,4-4.7,5.1c-3.7,1.1-8.1,2.3-8.1,2.3"/>
		<path class="st0" d="M46.1,47.1c0,0,2.6-0.2,6.7-0.8c4.4-0.6,7.8-1.3,8.6-1.5c2-0.6,3.6-2,3.4-4.4c-0.1-2.4-2.5-4.4-5.8-3.5"/>
		<path class="st0" d="M43.8,37.6c0,0,3.1,0.7,9-0.1c8.3-1,8.1-0.8,7-0.7c3.3-0.3,4.8-2.3,4.3-5.4c-0.4-2.7-1.6-3.6-3-3.6l-10,0.4"
			/>
		<path class="st0" d="M59.2,19.2c0,0,1.6,1.8,4.1,9.4c2.4,7.2,2.1,11.7,12.8,13.2"/>
		<path class="st0" d="M48.2,15.5c0,0-3.5,8.5-3.8,9.2c-0.2,0.7,1.2,5.6,6.1,3.7c4.4-2.3,7.8-3.7,8.6-9.5"/>
		<line class="st0" x1="85.4" y1="30" x2="102.1" y2="32.2"/>
		<path class="st0" d="M82.9,54.7c0,0,6.4,1.5,14.6,3.4"/>
	</g>
</g>
<g>
	<g>
		<path class="st0" d="M-123,27.4c0,0-2.9,2.1-2.8,5.1s2.1,4.6,2.7,5c0,0-1.8,1.8-1.2,5.1c0.6,3.3,2.8,4.2,3.7,4.4
			c0,0-1.1,2.7-0.2,5.1s2.6,3.1,3.8,3.6c1.2,0.5,4.4,1.5,5.1,2.2c0.7,0.8,3,1.2,6.2,1.3c2.3,0,9,0.5,14.1-0.4s6.2-1.7,7.3-4.3"/>
		<path class="st0" d="M-82.9,45.3c0.8-4.1,3.5-10.8,1.5-15c-2-4.1-6.1-9.5-9.1-12.8s-4.4-3.3-8.2-4.6s-11.3-3.3-13-3.5
			c-1.8-0.3-2.8-0.2-3.6,1.1c-0.8,1.3-2.8,4.6-2.8,4.6s-6,3.2-6.7,3.8c-0.7,0.6-1.1,4.4-0.6,5.9c0.8,2.3,4.8,3,4.8,3"/>
		<path class="st0" d="M-106.2,45.2c0,0,2.7,0.8,2.9,3c0.2,2.2-1.1,4-4.7,5.1c-3.7,1.1-8.1,2.3-8.1,2.3"/>
		<path class="st0" d="M-120.5,47.1c0,0,2.6-0.2,6.7-0.8c4.4-0.6,7.8-1.3,8.6-1.5c2-0.6,3.6-2,3.4-4.4c-0.1-2.4-2.5-4.4-5.8-3.5"/>
		<path class="st0" d="M-122.8,37.6c0,0,3.1,0.7,9-0.1c8.3-1,8.1-0.8,7-0.7c3.3-0.3,4.8-2.3,4.3-5.4c-0.4-2.7-1.6-3.6-3-3.6l-11,0.4
			"/>
		<path class="st0" d="M-107.4,19.2c0,0,1.6,1.8,4.1,9.4c2.4,7.2,2.1,11.7,12.8,13.2"/>
		<path class="st0" d="M-118.4,15.5c0,0-3.5,8.5-3.8,9.2c-0.2,0.7,0.8,5.3,5.7,3.4c4.9-1.8,8.5-3.1,9-9.2"/>
		<line class="st0" x1="-81.2" y1="30" x2="-64.5" y2="32.2"/>
		<path class="st0" d="M-83.7,54.7c0,0,6.4,1.5,14.6,3.4"/>
	</g>
</g>
</svg>
