<?xml version="1.0" encoding="utf-8"?>
<!-- Generator: Adobe Illustrator 19.1.0, SVG Export Plug-In . SVG Version: 6.00 Build 0)  -->
<!DOCTYPE svg PUBLIC "-//W3C//DTD SVG 1.1//EN" "http://www.w3.org/Graphics/SVG/1.1/DTD/svg11.dtd">
<svg version="1.1" id="Layer_1" xmlns="http://www.w3.org/2000/svg" xmlns:xlink="http://www.w3.org/1999/xlink" x="0px" y="0px"
	 viewBox="17 -17.9 107 107" style="enable-background:new 17 -17.9 107 107;" xml:space="preserve">
<style type="text/css">
	.st0{fill:none;stroke:#04BBDE;stroke-width:2.5193;stroke-linecap:round;stroke-linejoin:round;stroke-miterlimit:10;}
</style>
<g>
	<g>
		<path class="st0" d="M56.7,30.3c0,0-3.3-0.3-4.5-2.2c-2.5-4,2.8-2.9,8-6.9c5.9-4.5,11.6-8.5,16.3-8.5c3,0,7.3,0.3,10.2,3.7
			c2.3,2.7,4,5,2.8,15.8c-1.1,10.4-0.2,7-3,12.2c-2.8,5.2-13.4,11.4-17.2,13.3c-3.7,1.9-9.6,6.6-12,8c-2.2,1.3-4.7,0.8-6.2,0
			c-1.5-0.9-1-2.3-1-3.1c-2.1,1.8-7.1,2.3-8.5-0.2c-1.4-2.6-0.1-4.1,2.2-5.4c0,0-4.2,1-5.9-1.7c-1.7-2.7,1.8-5.6,3.4-5.9
			c0,0-3-0.4-3.5-2.2c-0.7-2.6,1.5-4.2,5.3-7.2C46.9,36.9,53.8,31.3,56.7,30.3z"/>
		<path class="st0" d="M41.2,49.3c0,0,3.8,0.7,7.7-2.9c3.9-3.6,9.5-7.2,12.1-9.3"/>
		<path class="st0" d="M43.5,57.1c0,0,3.9-0.9,6.9-3.8c3.1-3,10.8-7.3,11.6-7.7"/>
		<path class="st0" d="M50.1,62.6c1.3-1,2.2-1.1,4.4-3.2c1.4-1.3,7.8-6.1,9.9-7.3"/>
		<path class="st0" d="M56.7,30.3c0,0,3.9,0.1,6.8-1c3-1.2,4.7-2.4,8.9-1.6c4.8,0.9,8.4,2.1,11.2-2.7"/>
		<path class="st0" d="M61.1,34.6c0,0-0.3,12.6,5.3,19.9"/>
		<path class="st0" d="M85,14.8c1.7-0.8,9.8-0.8,17.4-0.9"/>
		<path class="st0" d="M89.9,38.7c2.7-1.4,8.2-1.3,13.7-1"/>
	</g>
</g>
</svg>
